HIERARCHY
ROOT Hips
{
	OFFSET 0.000000 0.000000 0.000000
	CHANNELS 6 Xposition Yposition Zposition Zrotation Yrotation Xrotation 
	JOINT LHipJoint
	{
		OFFSET 0.000000 0.000000 0.000000
		CHANNELS 3 Zrotation Yrotation Xrotation
		JOINT LeftUpLeg
		{
			OFFSET 1.363060 -1.794630 0.839290
			CHANNELS 3 Zrotation Yrotation Xrotation
			JOINT LeftLeg
			{
				OFFSET 2.448110 -6.726130 0.000000
				CHANNELS 3 Zrotation Yrotation Xrotation
				JOINT LeftFoot
				{
					OFFSET 2.562200 -7.039590 0.000000
					CHANNELS 3 Zrotation Yrotation Xrotation
					JOINT LeftToeBase
					{
						OFFSET 0.157640 -0.433110 2.322550
						CHANNELS 3 Zrotation Yrotation Xrotation
						End Site
						{
							OFFSET 0.000000 0.000000 0.000000
						}
					}
				}
			}
		}
	}
	JOINT RHipJoint
	{
		OFFSET 0.000000 0.000000 0.000000
		CHANNELS 3 Zrotation Yrotation Xrotation
		JOINT RightUpLeg
		{
			OFFSET -1.305520 -1.794630 0.839290
			CHANNELS 3 Zrotation Yrotation Xrotation
			JOINT RightLeg
			{
				OFFSET -2.542530 -6.985550 0.000000
				CHANNELS 3 Zrotation Yrotation Xrotation
				JOINT RightFoot
				{
					OFFSET -2.568260 -7.056230 0.000000
					CHANNELS 3 Zrotation Yrotation Xrotation
					JOINT RightToeBase
					{
						OFFSET -0.164730 -0.452590 2.363150
						CHANNELS 3 Zrotation Yrotation Xrotation
						End Site
						{
							OFFSET 0.000000 0.000000 0.000000
						}
					}
				}
			}
		}
	}
	JOINT LowerBack
	{
		OFFSET 0.000000 0.000000 0.000000
		CHANNELS 3 Zrotation Yrotation Xrotation
		JOINT Spine
		{
			OFFSET 0.028270 2.035590 -0.193380
			CHANNELS 3 Zrotation Yrotation Xrotation
			JOINT Spine1
			{
				OFFSET 0.056720 2.048850 -0.042750
				CHANNELS 3 Zrotation Yrotation Xrotation
				JOINT Neck
				{
					OFFSET 0.000000 0.000000 0.000000
					CHANNELS 3 Zrotation Yrotation Xrotation
					JOINT Neck1
					{
						OFFSET -0.054170 1.746240 0.172020
						CHANNELS 3 Zrotation Yrotation Xrotation
						JOINT Head
						{
							OFFSET 0.104070 1.761360 -0.123970
							CHANNELS 3 Zrotation Yrotation Xrotation
							End Site
							{
								OFFSET 0.000000 0.000000 0.000000
							}
						}
					}
				}
				JOINT LeftShoulder
				{
					OFFSET 0.000000 0.000000 0.000000
					CHANNELS 3 Zrotation Yrotation Xrotation
					JOINT LeftArm
					{
						OFFSET 3.362410 1.200890 -0.311210
						CHANNELS 3 Zrotation Yrotation Xrotation
						JOINT LeftForeArm
						{
							OFFSET 4.983000 -0.000000 -0.000000
							CHANNELS 3 Zrotation Yrotation Xrotation
							JOINT LeftHand
							{
								OFFSET 3.483560 -0.000000 -0.000000
								CHANNELS 3 Zrotation Yrotation Xrotation
								JOINT LeftFingerBase
								{
									OFFSET 0.000000 0.000000 0.000000
									CHANNELS 3 Zrotation Yrotation Xrotation
									JOINT LeftHandIndex1
									{
										OFFSET 0.715260 -0.000000 -0.000000
										CHANNELS 3 Zrotation Yrotation Xrotation
										End Site
										{
											OFFSET 0.000000 0.000000 0.000000
										}
									}
								}
								JOINT LThumb
								{
									OFFSET 0.000000 0.000000 0.000000
									CHANNELS 3 Zrotation Yrotation Xrotation
									End Site
									{
										OFFSET 0.000000 0.000000 0.000000
									}
								}
							}
						}
					}
				}
				JOINT RightShoulder
				{
					OFFSET 0.000000 0.000000 0.000000
					CHANNELS 3 Zrotation Yrotation Xrotation
					JOINT RightArm
					{
						OFFSET -3.136600 1.374050 -0.404650
						CHANNELS 3 Zrotation Yrotation Xrotation
						JOINT RightForeArm
						{
							OFFSET -5.241900 -0.000000 -0.000000
							CHANNELS 3 Zrotation Yrotation Xrotation
							JOINT RightHand
							{
								OFFSET -3.444170 -0.000000 -0.000000
								CHANNELS 3 Zrotation Yrotation Xrotation
								JOINT RightFingerBase
								{
									OFFSET 0.000000 0.000000 0.000000
									CHANNELS 3 Zrotation Yrotation Xrotation
									JOINT RightHandIndex1
									{
										OFFSET -0.622530 -0.000000 -0.000000
										CHANNELS 3 Zrotation Yrotation Xrotation
										End Site
										{
											OFFSET 0.000000 0.000000 0.000000
										}
									}
								}
								JOINT RThumb
								{
									OFFSET 0.000000 0.000000 0.000000
									CHANNELS 3 Zrotation Yrotation Xrotation
									End Site
									{
										OFFSET 0.000000 0.000000 0.000000
									}
								}
							}
						}
					}
				}
			}
		}
	}
}
MOTION
Frames: 5
Frame Time: 0.008333
15.421731 24.568807 30.420157 -39.765292 79.434604 -39.030466 14.112126 5.363141 85.366635 -102.517404 -25.457208 101.756988 -122.530768 -87.299127 177.386819 -73.510699 -77.995431 102.855697 4.135800 -12.339000 -36.942000 53.912102 22.114432 -162.185400 -63.636641 10.322866 105.400681 -120.142439 -86.657333 -97.073179 -161.223604 -23.219319 -159.094177 -1.226600 -7.024300 19.787300 2.299121 27.773696 -105.342550 78.122084 -11.300526 -45.024475 -131.148642 -67.525085 58.385700 -82.639432 81.997442 -41.218223 -157.240945 -33.574009 146.159295 -1.498200 -1.444500 19.869000 148.587561 -68.109669 -117.369431 -109.246186 -25.657980 -54.763514 2.436990 16.953412 172.363697 1.636188 -41.866098 -17.169319 53.483659 30.779093 74.164100 -7.125000 0.000000 0.000000 141.231800 -69.431300 -156.093500 -89.076428 -54.965081 122.514505 -104.253310 55.189658 162.318097 -54.485522 -56.135214 54.064263 -154.721164 -52.793360 161.783606 151.464589 -27.699674 -137.216801 7.125000 0.000000 0.000000 -62.143000 -71.357100 43.712300 
15.357173 24.629006 30.398365 29.740645 -46.530995 160.453412 -96.622583 68.248853 -17.780996 -178.180852 8.844194 -163.817439 113.960873 63.083110 -94.386008 130.499489 -30.709900 -71.704917 4.121500 -12.320300 -36.874800 -69.944808 11.598401 -12.584212 -151.877999 88.504510 -37.392369 136.339144 -75.805657 -173.154614 -43.637565 -79.710747 77.598004 -1.181300 -6.898000 19.413500 98.885991 3.067661 -164.750147 105.678408 67.362235 60.907374 -141.119411 -39.515626 -105.170042 160.499413 -80.138246 -9.346369 9.200790 82.572324 -17.881369 -1.502900 -1.414500 19.882100 54.444018 -29.883011 -125.926462 -136.249192 -1.956816 -32.395391 -130.030422 -72.529183 -10.578796 -28.002584 19.472976 -27.105791 81.292380 60.532484 74.133100 -7.125000 0.000000 0.000000 141.317500 -69.452900 -156.133900 -113.097801 84.866558 -130.710714 83.099605 -88.038124 59.191586 36.734348 -21.706818 -65.994615 -118.501853 -86.668488 167.545223 178.631184 -25.893823 -137.346991 7.125000 0.000000 0.000000 -61.798200 -71.330200 43.388400 
15.294794 24.687844 30.371670 4.802777 -79.286302 162.399033 -151.296305 62.826701 12.859479 -151.776587 -89.580762 -7.218814 -58.079829 -64.426692 -53.897598 17.141443 -24.458024 -113.377101 4.123600 -12.323100 -36.884600 -167.584473 5.545035 30.250188 -123.286194 16.662743 -16.779545 -81.231013 -59.048655 141.984871 -45.765618 -64.915645 23.478057 -1.108900 -6.690500 18.801600 -43.089886 20.958615 29.949290 100.885787 25.144257 -120.659438 -86.613555 76.090842 142.388740 99.387406 -41.331876 -49.552709 -83.220376 -68.834013 -103.128737 -1.526200 -1.383700 19.870400 134.593300 -57.292058 -127.083581 159.958980 -57.836447 -145.071703 31.952674 45.479768 -10.326245 -13.786140 -19.160896 -34.606639 58.461618 55.729841 74.259300 -7.125000 0.000000 0.000000 141.478600 -69.380200 -156.303500 -64.064878 -12.963920 125.722317 81.126729 18.521642 132.866796 -152.350074 11.164531 -35.701069 -79.702839 -76.519359 168.805866 72.901929 -54.394361 -137.511600 7.125000 0.000000 0.000000 -61.401000 -71.159000 42.857400 
15.229146 24.737148 30.343341 25.464194 -10.275600 -26.750049 -2.072923 19.142754 -126.822162 -54.174231 -39.742932 39.791871 -107.682650 -81.404963 -77.817198 15.888437 -21.260180 -37.570865 4.108800 -12.303700 -36.815100 -130.170884 -31.200689 -64.434525 -100.971813 48.056356 -62.883631 -156.068759 -36.817633 17.792766 152.497916 -47.420033 86.061050 -1.047600 -6.508700 18.267700 -42.554398 50.715797 27.154192 163.921638 23.060580 112.240752 -60.036284 71.117447 -84.993877 13.728915 63.734065 55.082537 -47.826430 -36.075825 -2.778022 -1.524100 -1.370900 19.913600 -148.842105 -7.462731 -41.032359 156.812638 -44.370712 -21.994814 157.883200 -13.199043 166.052761 -82.908519 11.241487 -69.312261 -128.025154 59.060358 -105.896700 -7.125000 0.000000 0.000000 141.355200 -69.471200 -156.144500 127.901290 28.802094 79.937100 -19.973777 -47.278664 177.397033 43.828258 -30.778964 89.787053 -9.698820 -72.405189 -42.216821 -140.874887 -1.669534 -137.754700 7.125000 0.000000 0.000000 -60.761400 -71.118700 42.272500 
15.168129 24.787269 30.318553 -6.388225 35.626960 80.621234 -179.399100 20.279044 -119.322071 149.510805 -82.219544 80.738290 91.337054 -30.408012 -109.281433 -2.433413 43.108538 -39.378388 4.136400 -12.339800 -36.944800 172.016155 71.794350 -7.443546 154.750583 44.246520 -23.333798 -133.804123 -71.438379 78.893793 -146.652268 -25.631212 166.125784 -0.902400 -6.053900 16.941000 110.780083 66.397356 36.566884 -142.941086 23.916301 -26.650601 172.225509 -59.618743 159.781899 79.625879 -8.730111 96.636865 -124.916083 -31.471210 -121.098108 -1.417900 -1.353200 19.971500 -99.875425 34.701344 -148.155672 161.734662 62.617132 99.217833 13.157811 27.607927 153.867131 -29.335666 16.464321 -73.677420 -106.504054 75.319135 -105.642301 -7.125000 0.000000 0.000000 141.637800 -69.323800 -156.457800 99.774679 23.692463 -128.467040 -50.091745 16.672738 -15.010517 33.528422 -28.641446 -0.324122 -153.706393 -69.538524 146.361113 129.452796 -32.356894 -137.793700 7.125000 0.000000 0.000000 -60.652500 -71.132900 42.196900 
